<?xml version="1.0" encoding="UTF-8" standalone="no"?>
<svg
   viewBox="0 0 1200 800"
   version="1.1"
   id="svg87"
   sodipodi:docname="allProcess.svg"
   inkscape:version="1.4 (e7c3feb1, 2024-10-09)"
   xmlns:inkscape="http://www.inkscape.org/namespaces/inkscape"
   xmlns:sodipodi="http://sodipodi.sourceforge.net/DTD/sodipodi-0.dtd"
   xmlns="http://www.w3.org/2000/svg"
   xmlns:svg="http://www.w3.org/2000/svg">
  <sodipodi:namedview
     id="namedview87"
     pagecolor="#ffffff"
     bordercolor="#000000"
     borderopacity="0.25"
     inkscape:showpageshadow="2"
     inkscape:pageopacity="0.0"
     inkscape:pagecheckerboard="0"
     inkscape:deskcolor="#d1d1d1"
     inkscape:zoom="0.78066264"
     inkscape:cx="468.83248"
     inkscape:cy="595.64782"
     inkscape:window-width="1472"
     inkscape:window-height="919"
     inkscape:window-x="0"
     inkscape:window-y="37"
     inkscape:window-maximized="0"
     inkscape:current-layer="svg87" />
  <defs
     id="defs1">
    <marker
       id="arrowhead"
       markerWidth="10"
       markerHeight="7"
       refX="9"
       refY="3.5"
       orient="auto">
      <polygon
         points="0 0, 10 3.5, 0 7"
         fill="#333"
         id="polygon1" />
    </marker>
  </defs>
  <style
     id="style1">
    .title {
      font-family: &quot;SimHei&quot;, &quot;Microsoft YaHei&quot;, sans-serif;
      font-size: 24px;
      font-weight: bold;
      text-anchor: middle;
      fill: #000;
    }
    .section-title {
      font-family: &quot;SimHei&quot;, &quot;Microsoft YaHei&quot;, sans-serif;
      font-size: 20px;
      font-weight: bold;
      fill: #000;
      text-anchor: middle;
      writing-mode: tb;
      dominant-baseline: middle;
    }
    .node {
      fill: white;
      stroke: #000;
      stroke-width: 1;
    }
    .node-text {
      font-family: &quot;SimHei&quot;, &quot;Microsoft YaHei&quot;, sans-serif;
      font-size: 14px;
      fill: #000;
      text-anchor: middle;
      dominant-baseline: middle;
    }
    .connector {
      stroke: #000;
      stroke-width: 1;
      fill: none;
      marker-end: url(#arrowhead);
    }
    .section-bg {
      fill: white;
      stroke: #000;
      stroke-width: 1;
    }
    .section-label {
      fill: #99ccff;
      stroke: #000;
      stroke-width: 1;
    }
  </style>
  <text
     x="600"
     y="30"
     class="title"
     id="text1">全流程图</text>
  <rect
     x="105"
     y="60"
     width="90"
     height="210"
     class="section-label"
     rx="0"
     ry="0"
     id="rect1" />
  <text
     x="150"
     y="165"
     class="section-title"
     id="text2">制片段</text>
  <rect
     x="195"
     y="60"
     width="945"
     height="210"
     class="section-bg"
     rx="0"
     ry="0"
     id="rect2" />
  <rect
     x="215"
     y="85"
     width="100"
     height="40"
     class="node"
     id="n1-1" />
  <text
     x="265"
     y="105"
     class="node-text"
     id="text3">正极搅拌</text>
  <rect
     x="365"
     y="85"
     width="100"
     height="40"
     class="node"
     id="n1-2" />
  <text
     x="415"
     y="105"
     class="node-text"
     id="text4">正极底涂</text>
  <rect
     x="515"
     y="85"
     width="100"
     height="40"
     class="node"
     id="n1-3" />
  <text
     x="565"
     y="105"
     class="node-text"
     id="text5">正极涂布</text>
  <rect
     x="665"
     y="85"
     width="100"
     height="40"
     class="node"
     id="n1-4" />
  <text
     x="715"
     y="105"
     class="node-text"
     id="text6">正极辊压分切</text>
  <rect
     x="815"
     y="140"
     width="100"
     height="40"
     class="node"
     id="n1-5" />
  <text
     x="865"
     y="160"
     class="node-text"
     id="text7">极片库</text>
  <rect
     x="365"
     y="170"
     width="100"
     height="40"
     class="node"
     id="n1-6" />
  <text
     x="415"
     y="190"
     class="node-text"
     id="text8">陶瓷搅拌</text>
  <rect
     x="215"
     y="210"
     width="100"
     height="40"
     class="node"
     id="n1-7" />
  <text
     x="265"
     y="230"
     class="node-text"
     id="text9">负极搅拌</text>
  <rect
     x="515"
     y="210"
     width="100"
     height="40"
     class="node"
     id="n1-8" />
  <text
     x="565"
     y="230"
     class="node-text"
     id="text10">负极涂布</text>
  <rect
     x="665"
     y="210"
     width="100"
     height="40"
     class="node"
     id="n1-9" />
  <text
     x="715"
     y="230"
     class="node-text"
     id="text11">负极冷压分切</text>
  <path
     d="M315 105 L365 105"
     class="connector"
     id="path11" />
  <path
     d="M465 105 L515 105"
     class="connector"
     id="path12" />
  <path
     d="M615 105 L665 105"
     class="connector"
     id="path13" />
  <path
     d="M765 105 L765 140 L815 140"
     class="connector"
     id="path14" />
  <path
     d="M415 170 L415 125"
     class="connector"
     id="path15" />
  <path
     d="M315 230 L515 230"
     class="connector"
     id="path16" />
  <path
     d="M615 230 L665 230"
     class="connector"
     id="path17" />
  <path
     d="M765 230 L765 180 L815 180"
     class="connector"
     id="path18" />
  <rect
     x="105"
     y="300"
     width="90"
     height="100"
     class="section-label"
     rx="0"
     ry="0"
     id="rect18" />
  <text
     x="150"
     y="348"
     class="section-title"
     id="text18">切叠段</text>
  <rect
     x="195"
     y="300"
     width="945"
     height="100"
     class="section-bg"
     rx="0"
     ry="0"
     id="rect19" />
  <rect
     x="215"
     y="330"
     width="100"
     height="40"
     class="node"
     id="n2-1" />
  <text
     x="265"
     y="350"
     class="node-text"
     id="text19">极片库</text>
  <rect
     x="515"
     y="330"
     width="100"
     height="40"
     class="node"
     id="n2-2" />
  <text
     x="565"
     y="350"
     class="node-text"
     id="text20">切叠热复核</text>
  <path
     d="M315 350 L515 350"
     class="connector"
     id="path20" />
  <rect
     x="105"
     y="430"
     width="90"
     height="120"
     class="section-label"
     rx="0"
     ry="0"
     id="rect20" />
  <text
     x="150"
     y="490"
     class="section-title"
     id="text21">组装段</text>
  <rect
     x="195"
     y="430"
     width="945"
     height="120"
     class="section-bg"
     rx="0"
     ry="0"
     id="rect21" />
  <rect
     x="215"
     y="445"
     width="80"
     height="35"
     class="node"
     id="n3-1" />
  <text
     x="255"
     y="462.5"
     class="node-text"
     id="text22">X-ray1</text>
  <rect
     x="325"
     y="445"
     width="80"
     height="35"
     class="node"
     id="n3-2" />
  <text
     x="365"
     y="462.5"
     class="node-text"
     id="text23">预焊</text>
  <rect
     x="435"
     y="445"
     width="80"
     height="35"
     class="node"
     id="n3-3" />
  <text
     x="475"
     y="462.5"
     class="node-text"
     id="text24">终焊</text>
  <rect
     x="545"
     y="445"
     width="80"
     height="35"
     class="node"
     id="n3-4" />
  <text
     x="585"
     y="462.5"
     class="node-text"
     id="text25">软连接</text>
  <rect
     x="655"
     y="445"
     width="80"
     height="35"
     class="node"
     id="n3-5" />
  <text
     x="695"
     y="462.5"
     class="node-text"
     id="text26">包PET膜</text>
  <rect
     x="765"
     y="445"
     width="80"
     height="35"
     class="node"
     id="n3-6" />
  <text
     x="805"
     y="462.5"
     class="node-text"
     id="text27">入壳机</text>
  <rect
     x="875"
     y="445"
     width="80"
     height="35"
     class="node"
     id="n3-7" />
  <text
     x="915"
     y="462.5"
     class="node-text"
     id="text28">顶盖满焊</text>
  <rect
     x="985"
     y="445"
     width="80"
     height="35"
     class="node"
     id="n3-8" />
  <text
     x="1025"
     y="462.5"
     class="node-text"
     id="text29">前氦检</text>
  <rect
     x="985"
     y="505"
     width="80"
     height="35"
     class="node"
     id="n3-9" />
  <text
     x="1025"
     y="522.5"
     class="node-text"
     id="text30">真空烘烤</text>
  <rect
     x="875"
     y="505"
     width="80"
     height="35"
     class="node"
     id="n3-10" />
  <text
     x="915"
     y="522.5"
     class="node-text"
     id="text31">一次注液</text>
  <path
     d="M295 462.5 L325 462.5"
     class="connector"
     id="path31" />
  <path
     d="M405 462.5 L435 462.5"
     class="connector"
     id="path32" />
  <path
     d="M515 462.5 L545 462.5"
     class="connector"
     id="path33" />
  <path
     d="M625 462.5 L655 462.5"
     class="connector"
     id="path34" />
  <path
     d="M735 462.5 L765 462.5"
     class="connector"
     id="path35" />
  <path
     d="M845 462.5 L875 462.5"
     class="connector"
     id="path36" />
  <path
     d="M955 462.5 L985 462.5"
     class="connector"
     id="path37" />
  <path
     d="M1025 480 L1025 505"
     class="connector"
     id="path38" />
  <path
     d="M985 522.5 L955 522.5"
     class="connector"
     id="path39" />
  <rect
     x="105"
     y="580"
     width="90"
     height="200"
     class="section-label"
     rx="0"
     ry="0"
     id="rect39" />
  <text
     x="150"
     y="684"
     class="section-title"
     id="text39">化成段</text>
  <rect
     x="195"
     y="580"
     width="945"
     height="200"
     class="section-bg"
     rx="0"
     ry="0"
     id="rect40" />
  <rect
     x="215"
     y="595"
     width="80"
     height="35"
     class="node"
     id="n4-1" />
  <text
     x="255"
     y="612.5"
     class="node-text"
     id="text40">高温静置1</text>
  <rect
     x="325"
     y="595"
     width="80"
     height="35"
     class="node"
     id="n4-2" />
  <text
     x="365"
     y="612.5"
     class="node-text"
     id="text41">OCV0</text>
  <rect
     x="435"
     y="595"
     width="80"
     height="35"
     class="node"
     id="n4-3" />
  <text
     x="475"
     y="612.5"
     class="node-text"
     id="text42">化成</text>
  <rect
     x="545"
     y="595"
     width="80"
     height="35"
     class="node"
     id="n4-4" />
  <text
     x="585"
     y="612.5"
     class="node-text"
     id="text43">高温静置2</text>
  <rect
     x="655"
     y="595"
     width="80"
     height="35"
     class="node"
     id="n4-5" />
  <text
     x="695"
     y="612.5"
     class="node-text"
     id="text44">OCV1</text>
  <rect
     x="765"
     y="595"
     width="80"
     height="35"
     class="node"
     id="n4-6" />
  <text
     x="805"
     y="612.5"
     class="node-text"
     id="text45">筛选1</text>
  <rect
     x="875"
     y="595"
     width="80"
     height="35"
     class="node"
     id="n4-7" />
  <text
     x="915"
     y="612.5"
     class="node-text"
     id="text46">密封钉焊</text>
  <rect
     x="985"
     y="595"
     width="80"
     height="35"
     class="node"
     id="n4-8" />
  <text
     x="1025"
     y="612.5"
     class="node-text"
     id="text47">调SOC(分容)</text>
  <rect
     x="215"
     y="660"
     width="80"
     height="35"
     class="node"
     id="n4-9" />
  <text
     x="255"
     y="677.5"
     class="node-text"
     id="text48">OCV4</text>
  <rect
     x="325"
     y="660"
     width="80"
     height="35"
     class="node"
     id="n4-10" />
  <text
     x="365"
     y="677.5"
     class="node-text"
     id="text49">半成品立库</text>
  <rect
     x="435"
     y="660"
     width="80"
     height="35"
     class="node"
     id="n4-11" />
  <text
     x="475"
     y="677.5"
     class="node-text"
     id="text50">筛选2</text>
  <rect
     x="545"
     y="660"
     width="80"
     height="35"
     class="node"
     id="n4-12" />
  <text
     x="585"
     y="677.5"
     class="node-text"
     id="text51">OCV3</text>
  <rect
     x="655"
     y="660"
     width="80"
     height="35"
     class="node"
     id="n4-13" />
  <text
     x="695"
     y="677.5"
     class="node-text"
     id="text52">常温静置2</text>
  <rect
     x="765"
     y="660"
     width="80"
     height="35"
     class="node"
     id="n4-14" />
  <text
     x="805"
     y="677.5"
     class="node-text"
     id="text53">高温静置3</text>
  <rect
     x="875"
     y="660"
     width="80"
     height="35"
     class="node"
     id="n4-15" />
  <text
     x="915"
     y="677.5"
     class="node-text"
     id="text54">OCV2</text>
  <rect
     x="985"
     y="660"
     width="80"
     height="35"
     class="node"
     id="n4-16" />
  <text
     x="1025"
     y="677.5"
     class="node-text"
     id="text55">常温静置1</text>
  <rect
     x="215"
     y="725"
     width="80"
     height="35"
     class="node"
     id="n4-17" />
  <text
     x="255"
     y="742.5"
     class="node-text"
     id="text56">筛选3</text>
  <rect
     x="325"
     y="725"
     width="80"
     height="35"
     class="node"
     id="n4-18" />
  <text
     x="365"
     y="742.5"
     class="node-text"
     id="text57">补电</text>
  <rect
     x="435"
     y="725"
     width="80"
     height="35"
     class="node"
     id="n4-19" />
  <text
     x="475"
     y="742.5"
     class="node-text"
     id="text58">DCIR</text>
  <rect
     x="545"
     y="725"
     width="80"
     height="35"
     class="node"
     id="n4-20" />
  <text
     x="585"
     y="742.5"
     class="node-text"
     id="text59">筛选4</text>
  <rect
     x="655"
     y="725"
     width="80"
     height="35"
     class="node"
     id="n4-21" />
  <text
     x="695"
     y="742.5"
     class="node-text"
     id="text60">清洗</text>
  <rect
     x="765"
     y="725"
     width="80"
     height="35"
     class="node"
     id="n4-22" />
  <text
     x="805"
     y="742.5"
     class="node-text"
     id="text61">清洗</text>
  <rect
     x="875"
     y="725"
     width="80"
     height="35"
     class="node"
     id="n4-23" />
  <text
     x="915"
     y="742.5"
     class="node-text"
     id="text62">UV喷涂</text>
  <rect
     x="985"
     y="725"
     width="80"
     height="35"
     class="node"
     id="n4-24" />
  <text
     x="1025"
     y="742.5"
     class="node-text"
     id="text63">下线检测</text>
  <rect
     x="1095"
     y="725"
     width="80"
     height="35"
     class="node"
     id="n4-25" />
  <text
     x="1135"
     y="742.5"
     class="node-text"
     id="text64">装箱</text>
  <path
     d="M295 612.5 L325 612.5"
     class="connector"
     id="path64" />
  <path
     d="M405 612.5 L435 612.5"
     class="connector"
     id="path65" />
  <path
     d="M515 612.5 L545 612.5"
     class="connector"
     id="path66" />
  <path
     d="M625 612.5 L655 612.5"
     class="connector"
     id="path67" />
  <path
     d="M735 612.5 L765 612.5"
     class="connector"
     id="path68" />
  <path
     d="M845 612.5 L875 612.5"
     class="connector"
     id="path69" />
  <path
     d="M955 612.5 L985 612.5"
     class="connector"
     id="path70" />
  <path
     d="M1025 630 L1025 660"
     class="connector"
     id="path71" />
  <path
     d="M985 677.5 L955 677.5"
     class="connector"
     id="path72" />
  <path
     d="M875 677.5 L845 677.5"
     class="connector"
     id="path73" />
  <path
     d="M765 677.5 L735 677.5"
     class="connector"
     id="path74" />
  <path
     d="M655 677.5 L625 677.5"
     class="connector"
     id="path75" />
  <path
     d="M545 677.5 L515 677.5"
     class="connector"
     id="path76" />
  <path
     d="M435 677.5 L405 677.5"
     class="connector"
     id="path77" />
  <path
     d="M325 677.5 L295 677.5"
     class="connector"
     id="path78" />
  <path
     d="M255 695 L255 725"
     class="connector"
     id="path79" />
  <path
     d="M295 742.5 L325 742.5"
     class="connector"
     id="path80" />
  <path
     d="M405 742.5 L435 742.5"
     class="connector"
     id="path81" />
  <path
     d="M515 742.5 L545 742.5"
     class="connector"
     id="path82" />
  <path
     d="M625 742.5 L655 742.5"
     class="connector"
     id="path83" />
  <path
     d="M735 742.5 L765 742.5"
     class="connector"
     id="path84" />
  <path
     d="M845 742.5 L875 742.5"
     class="connector"
     id="path85" />
  <path
     d="M955 742.5 L985 742.5"
     class="connector"
     id="path86" />
  <path
     d="M1065 742.5 L1095 742.5"
     class="connector"
     id="path87" />
</svg>
